<?xml version="1.0" encoding="UTF-8" standalone="no"?>
<!-- Created with Inkscape (http://www.inkscape.org/) -->

<svg
   xmlns:dc="http://purl.org/dc/elements/1.1/"
   xmlns:cc="http://creativecommons.org/ns#"
   xmlns:rdf="http://www.w3.org/1999/02/22-rdf-syntax-ns#"
   xmlns:svg="http://www.w3.org/2000/svg"
   xmlns="http://www.w3.org/2000/svg"
   xmlns:sodipodi="http://sodipodi.sourceforge.net/DTD/sodipodi-0.dtd"
   xmlns:inkscape="http://www.inkscape.org/namespaces/inkscape"
   width="10in"
   height="12in"
   viewBox="0 240 900 1080"
   preserveAspectRatio="xMinYMin meet"
   id="svg2"
   version="1.1"
   inkscape:version="0.91 r13725"
   sodipodi:docname="queen.svg">
  <defs
     id="defs4" />
  <sodipodi:namedview
     id="base"
     pagecolor="#ffffff"
     bordercolor="#666666"
     borderopacity="1.0"
     inkscape:pageopacity="0.0"
     inkscape:pageshadow="2"
     inkscape:zoom="0.61765806"
     inkscape:cx="567.63779"
     inkscape:cy="594.24355"
     inkscape:document-units="in"
     inkscape:current-layer="layer1"
     showgrid="false"
     inkscape:window-width="1440"
     inkscape:window-height="778"
     inkscape:window-x="0"
     inkscape:window-y="0"
     inkscape:window-maximized="1" />
  <metadata
     id="metadata7">
    <rdf:RDF>
      <cc:Work
         rdf:about="">
        <dc:format>image/svg+xml</dc:format>
        <dc:type
           rdf:resource="http://purl.org/dc/dcmitype/StillImage" />
        <dc:title></dc:title>
      </cc:Work>
    </rdf:RDF>
  </metadata>
  <g
     inkscape:label="Layer 1"
     inkscape:groupmode="layer"
     id="layer1"
     transform="translate(0,270)">
    <g
       id="group1"
       style="fill:none;stroke-width:2;stroke-miterlimit:4;stroke-dasharray:none;stroke:#c0c0c0;stroke-opacity:1">
      <path
         inkscape:connector-curvature="0"
         id="rect4236"
         image-id="replaceme1"
         d="m 0,1050 90,0 0,-89.99996 -90,0 z"
         style="fill:none;fill-opacity:1;stroke:#c0c0c0;stroke-width:2;stroke-miterlimit:4;stroke-dasharray:none;stroke-opacity:1" />
      <path
         style="fill:none;fill-opacity:1;stroke:#c0c0c0;stroke-width:2;stroke-miterlimit:4;stroke-dasharray:none;stroke-opacity:1"
         d="m 90,1050 90,0 0,-89.99996 -90,0 z"
         image-id="replaceme1"
         id="path4156"
         inkscape:connector-curvature="0" />
      <path
         inkscape:connector-curvature="0"
         id="path4158"
         image-id="replaceme1"
         d="m 90,1050 90,0 0,-89.99996 -90,0 z"
         style="fill:none;fill-opacity:1;stroke:#c0c0c0;stroke-width:2;stroke-miterlimit:4;stroke-dasharray:none;stroke-opacity:1" />
      <path
         style="fill:none;fill-opacity:1;stroke:#c0c0c0;stroke-width:2;stroke-miterlimit:4;stroke-dasharray:none;stroke-opacity:1"
         d="m 180,1050 90,0 0,-89.99994 -90,0 z"
         image-id="replaceme1"
         id="path4160"
         inkscape:connector-curvature="0" />
      <path
         inkscape:connector-curvature="0"
         id="path4162"
         image-id="replaceme1"
         d="m 270,1050 90,0 0,-89.99994 -90,0 z"
         style="fill:none;fill-opacity:1;stroke:#c0c0c0;stroke-width:2;stroke-miterlimit:4;stroke-dasharray:none;stroke-opacity:1" />
      <path
         style="fill:none;fill-opacity:1;stroke:#c0c0c0;stroke-width:2;stroke-miterlimit:4;stroke-dasharray:none;stroke-opacity:1"
         d="m 360,1050 90,0 0,-89.99994 -90,0 z"
         image-id="replaceme1"
         id="path4164"
         inkscape:connector-curvature="0" />
      <path
         inkscape:connector-curvature="0"
         id="path4166"
         image-id="replaceme1"
         d="m 450,1050 90,0 0,-89.99994 -90,0 z"
         style="fill:none;fill-opacity:1;stroke:#c0c0c0;stroke-width:2;stroke-miterlimit:4;stroke-dasharray:none;stroke-opacity:1" />
      <path
         style="fill:none;fill-opacity:1;stroke:#c0c0c0;stroke-width:2;stroke-miterlimit:4;stroke-dasharray:none;stroke-opacity:1"
         d="m 630,1050 90,0 0,-89.99994 -90,0 z"
         image-id="replaceme1"
         id="path4168"
         inkscape:connector-curvature="0" />
      <path
         inkscape:connector-curvature="0"
         id="path4170"
         image-id="replaceme1"
         d="m 540,1050 90,0 0,-89.99994 -90,0 z"
         style="fill:none;fill-opacity:1;stroke:#c0c0c0;stroke-width:2;stroke-miterlimit:4;stroke-dasharray:none;stroke-opacity:1" />
      <path
         inkscape:connector-curvature="0"
         id="path4172"
         image-id="replaceme1"
         d="m 720,1050 90,0 0,-89.99994 -90,0 z"
         style="fill:none;fill-opacity:1;stroke:#c0c0c0;stroke-width:2;stroke-miterlimit:4;stroke-dasharray:none;stroke-opacity:1" />
      <path
         style="fill:none;fill-opacity:1;stroke:#c0c0c0;stroke-width:2;stroke-miterlimit:4;stroke-dasharray:none;stroke-opacity:1"
         d="m 810,1050 90,0 0,-89.99994 -90,0 z"
         image-id="replaceme1"
         id="path4174"
         inkscape:connector-curvature="0" />
      <path
         style="fill:none;fill-opacity:1;stroke:#c0c0c0;stroke-width:2;stroke-miterlimit:4;stroke-dasharray:none;stroke-opacity:1"
         d="m 0,960 90,0 0,-89.99996 -90,0 z"
         image-id="replaceme1"
         id="path4213"
         inkscape:connector-curvature="0" />
      <path
         inkscape:connector-curvature="0"
         id="path4215"
         image-id="replaceme1"
         d="m 90,960 90,0 0,-89.99996 -90,0 z"
         style="fill:none;fill-opacity:1;stroke:#c0c0c0;stroke-width:2;stroke-miterlimit:4;stroke-dasharray:none;stroke-opacity:1" />
      <path
         style="fill:none;fill-opacity:1;stroke:#c0c0c0;stroke-width:2;stroke-miterlimit:4;stroke-dasharray:none;stroke-opacity:1"
         d="m 90,960 90,0 0,-89.99996 -90,0 z"
         image-id="replaceme1"
         id="path4217"
         inkscape:connector-curvature="0" />
      <path
         inkscape:connector-curvature="0"
         id="path4219"
         image-id="replaceme1"
         d="m 180,960 90,0 0,-89.99994 -90,0 z"
         style="fill:none;fill-opacity:1;stroke:#c0c0c0;stroke-width:2;stroke-miterlimit:4;stroke-dasharray:none;stroke-opacity:1" />
      <path
         style="fill:none;fill-opacity:1;stroke:#c0c0c0;stroke-width:2;stroke-miterlimit:4;stroke-dasharray:none;stroke-opacity:1"
         d="m 270,960 90,0 0,-89.99994 -90,0 z"
         image-id="replaceme1"
         id="path4221"
         inkscape:connector-curvature="0" />
      <path
         inkscape:connector-curvature="0"
         id="path4223"
         image-id="replaceme1"
         d="m 360,960 90,0 0,-89.99994 -90,0 z"
         style="fill:none;fill-opacity:1;stroke:#c0c0c0;stroke-width:2;stroke-miterlimit:4;stroke-dasharray:none;stroke-opacity:1" />
      <path
         style="fill:none;fill-opacity:1;stroke:#c0c0c0;stroke-width:2;stroke-miterlimit:4;stroke-dasharray:none;stroke-opacity:1"
         d="m 450,960 90,0 0,-89.99994 -90,0 z"
         image-id="replaceme1"
         id="path4225"
         inkscape:connector-curvature="0" />
      <path
         inkscape:connector-curvature="0"
         id="path4227"
         image-id="replaceme1"
         d="m 630,960 90,0 0,-89.99994 -90,0 z"
         style="fill:none;fill-opacity:1;stroke:#c0c0c0;stroke-width:2;stroke-miterlimit:4;stroke-dasharray:none;stroke-opacity:1" />
      <path
         style="fill:none;fill-opacity:1;stroke:#c0c0c0;stroke-width:2;stroke-miterlimit:4;stroke-dasharray:none;stroke-opacity:1"
         d="m 540,960 90,0 0,-89.99994 -90,0 z"
         image-id="replaceme1"
         id="path4229"
         inkscape:connector-curvature="0" />
      <path
         style="fill:none;fill-opacity:1;stroke:#c0c0c0;stroke-width:2;stroke-miterlimit:4;stroke-dasharray:none;stroke-opacity:1"
         d="m 720,960 90,0 0,-89.99994 -90,0 z"
         image-id="replaceme1"
         id="path4231"
         inkscape:connector-curvature="0" />
      <path
         inkscape:connector-curvature="0"
         id="path4233"
         image-id="replaceme1"
         d="m 810,960 90,0 0,-89.99994 -90,0 z"
         style="fill:none;fill-opacity:1;stroke:#c0c0c0;stroke-width:2;stroke-miterlimit:4;stroke-dasharray:none;stroke-opacity:1" />
      <path
         inkscape:connector-curvature="0"
         id="path4237"
         image-id="replaceme1"
         d="m 0,870 90,0 0,-89.99996 -90,0 z"
         style="fill:none;fill-opacity:1;stroke:#c0c0c0;stroke-width:2;stroke-miterlimit:4;stroke-dasharray:none;stroke-opacity:1" />
      <path
         style="fill:none;fill-opacity:1;stroke:#c0c0c0;stroke-width:2;stroke-miterlimit:4;stroke-dasharray:none;stroke-opacity:1"
         d="m 90,870 90,0 0,-89.99996 -90,0 z"
         image-id="replaceme1"
         id="path4239"
         inkscape:connector-curvature="0" />
      <path
         inkscape:connector-curvature="0"
         id="path4241"
         image-id="replaceme1"
         d="m 90,870 90,0 0,-89.99996 -90,0 z"
         style="fill:none;fill-opacity:1;stroke:#c0c0c0;stroke-width:2;stroke-miterlimit:4;stroke-dasharray:none;stroke-opacity:1" />
      <path
         style="fill:none;fill-opacity:1;stroke:#c0c0c0;stroke-width:2;stroke-miterlimit:4;stroke-dasharray:none;stroke-opacity:1"
         d="m 180,870 90,0 0,-89.99994 -90,0 z"
         image-id="replaceme1"
         id="path4243"
         inkscape:connector-curvature="0" />
      <path
         inkscape:connector-curvature="0"
         id="path4245"
         image-id="replaceme1"
         d="m 270,870 90,0 0,-89.99994 -90,0 z"
         style="fill:none;fill-opacity:1;stroke:#c0c0c0;stroke-width:2;stroke-miterlimit:4;stroke-dasharray:none;stroke-opacity:1" />
      <path
         style="fill:none;fill-opacity:1;stroke:#c0c0c0;stroke-width:2;stroke-miterlimit:4;stroke-dasharray:none;stroke-opacity:1"
         d="m 360,870 90,0 0,-89.99994 -90,0 z"
         image-id="replaceme1"
         id="path4247"
         inkscape:connector-curvature="0" />
      <path
         inkscape:connector-curvature="0"
         id="path4249"
         image-id="replaceme1"
         d="m 450,870 90,0 0,-89.99994 -90,0 z"
         style="fill:none;fill-opacity:1;stroke:#c0c0c0;stroke-width:2;stroke-miterlimit:4;stroke-dasharray:none;stroke-opacity:1" />
      <path
         style="fill:none;fill-opacity:1;stroke:#c0c0c0;stroke-width:2;stroke-miterlimit:4;stroke-dasharray:none;stroke-opacity:1"
         d="m 630,870 90,0 0,-89.99994 -90,0 z"
         image-id="replaceme1"
         id="path4251"
         inkscape:connector-curvature="0" />
      <path
         inkscape:connector-curvature="0"
         id="path4253"
         image-id="replaceme1"
         d="m 540,870 90,0 0,-89.99994 -90,0 z"
         style="fill:none;fill-opacity:1;stroke:#c0c0c0;stroke-width:2;stroke-miterlimit:4;stroke-dasharray:none;stroke-opacity:1" />
      <path
         inkscape:connector-curvature="0"
         id="path4255"
         image-id="replaceme1"
         d="m 720,870 90,0 0,-89.99994 -90,0 z"
         style="fill:none;fill-opacity:1;stroke:#c0c0c0;stroke-width:2;stroke-miterlimit:4;stroke-dasharray:none;stroke-opacity:1" />
      <path
         style="fill:none;fill-opacity:1;stroke:#c0c0c0;stroke-width:2;stroke-miterlimit:4;stroke-dasharray:none;stroke-opacity:1"
         d="m 810,870 90,0 0,-89.99994 -90,0 z"
         image-id="replaceme1"
         id="path4257"
         inkscape:connector-curvature="0" />
      <path
         style="fill:none;fill-opacity:1;stroke:#c0c0c0;stroke-width:2;stroke-miterlimit:4;stroke-dasharray:none;stroke-opacity:1"
         d="m 0,780 90,0 0,-89.99996 -90,0 z"
         image-id="replaceme1"
         id="path4261"
         inkscape:connector-curvature="0" />
      <path
         inkscape:connector-curvature="0"
         id="path4263"
         image-id="replaceme1"
         d="m 90,780 90,0 0,-89.99996 -90,0 z"
         style="fill:none;fill-opacity:1;stroke:#c0c0c0;stroke-width:2;stroke-miterlimit:4;stroke-dasharray:none;stroke-opacity:1" />
      <path
         style="fill:none;fill-opacity:1;stroke:#c0c0c0;stroke-width:2;stroke-miterlimit:4;stroke-dasharray:none;stroke-opacity:1"
         d="m 90,780 90,0 0,-89.99996 -90,0 z"
         image-id="replaceme1"
         id="path4265"
         inkscape:connector-curvature="0" />
      <path
         inkscape:connector-curvature="0"
         id="path4267"
         image-id="replaceme1"
         d="m 180,780 90,0 0,-89.99994 -90,0 z"
         style="fill:none;fill-opacity:1;stroke:#c0c0c0;stroke-width:2;stroke-miterlimit:4;stroke-dasharray:none;stroke-opacity:1" />
      <path
         style="fill:none;fill-opacity:1;stroke:#c0c0c0;stroke-width:2;stroke-miterlimit:4;stroke-dasharray:none;stroke-opacity:1"
         d="m 270,780 90,0 0,-89.99994 -90,0 z"
         image-id="replaceme1"
         id="path4269"
         inkscape:connector-curvature="0" />
      <path
         inkscape:connector-curvature="0"
         id="path4271"
         image-id="replaceme1"
         d="m 360,780 90,0 0,-89.99994 -90,0 z"
         style="fill:none;fill-opacity:1;stroke:#c0c0c0;stroke-width:2;stroke-miterlimit:4;stroke-dasharray:none;stroke-opacity:1" />
      <path
         style="fill:none;fill-opacity:1;stroke:#c0c0c0;stroke-width:2;stroke-miterlimit:4;stroke-dasharray:none;stroke-opacity:1"
         d="m 450,780 90,0 0,-89.99994 -90,0 z"
         image-id="replaceme1"
         id="path4273"
         inkscape:connector-curvature="0" />
      <path
         inkscape:connector-curvature="0"
         id="path4275"
         image-id="replaceme1"
         d="m 630,780 90,0 0,-89.99994 -90,0 z"
         style="fill:none;fill-opacity:1;stroke:#c0c0c0;stroke-width:2;stroke-miterlimit:4;stroke-dasharray:none;stroke-opacity:1" />
      <path
         style="fill:none;fill-opacity:1;stroke:#c0c0c0;stroke-width:2;stroke-miterlimit:4;stroke-dasharray:none;stroke-opacity:1"
         d="m 540,780 90,0 0,-89.99994 -90,0 z"
         image-id="replaceme1"
         id="path4277"
         inkscape:connector-curvature="0" />
      <path
         style="fill:none;fill-opacity:1;stroke:#c0c0c0;stroke-width:2;stroke-miterlimit:4;stroke-dasharray:none;stroke-opacity:1"
         d="m 720,780 90,0 0,-89.99994 -90,0 z"
         image-id="replaceme1"
         id="path4279"
         inkscape:connector-curvature="0" />
      <path
         inkscape:connector-curvature="0"
         id="path4281"
         image-id="replaceme1"
         d="m 810,780 90,0 0,-89.99994 -90,0 z"
         style="fill:none;fill-opacity:1;stroke:#c0c0c0;stroke-width:2;stroke-miterlimit:4;stroke-dasharray:none;stroke-opacity:1" />
      <path
         inkscape:connector-curvature="0"
         id="path4285"
         image-id="replaceme1"
         d="m 0,690 90,0 0,-89.99996 -90,0 z"
         style="fill:none;fill-opacity:1;stroke:#c0c0c0;stroke-width:2;stroke-miterlimit:4;stroke-dasharray:none;stroke-opacity:1" />
      <path
         style="fill:none;fill-opacity:1;stroke:#c0c0c0;stroke-width:2;stroke-miterlimit:4;stroke-dasharray:none;stroke-opacity:1"
         d="m 90,690 90,0 0,-89.99996 -90,0 z"
         image-id="replaceme1"
         id="path4287"
         inkscape:connector-curvature="0" />
      <path
         inkscape:connector-curvature="0"
         id="path4289"
         image-id="replaceme1"
         d="m 90,690 90,0 0,-89.99996 -90,0 z"
         style="fill:none;fill-opacity:1;stroke:#c0c0c0;stroke-width:2;stroke-miterlimit:4;stroke-dasharray:none;stroke-opacity:1" />
      <path
         style="fill:none;fill-opacity:1;stroke:#c0c0c0;stroke-width:2;stroke-miterlimit:4;stroke-dasharray:none;stroke-opacity:1"
         d="m 180,690 90,0 0,-89.99994 -90,0 z"
         image-id="replaceme1"
         id="path4291"
         inkscape:connector-curvature="0" />
      <path
         inkscape:connector-curvature="0"
         id="path4293"
         image-id="replaceme1"
         d="m 270,690 90,0 0,-89.99994 -90,0 z"
         style="fill:none;fill-opacity:1;stroke:#c0c0c0;stroke-width:2;stroke-miterlimit:4;stroke-dasharray:none;stroke-opacity:1" />
      <path
         style="fill:none;fill-opacity:1;stroke:#c0c0c0;stroke-width:2;stroke-miterlimit:4;stroke-dasharray:none;stroke-opacity:1"
         d="m 360,690 90,0 0,-89.99994 -90,0 z"
         image-id="replaceme1"
         id="path4295"
         inkscape:connector-curvature="0" />
      <path
         inkscape:connector-curvature="0"
         id="path4297"
         image-id="replaceme1"
         d="m 450,690 90,0 0,-89.99994 -90,0 z"
         style="fill:none;fill-opacity:1;stroke:#c0c0c0;stroke-width:2;stroke-miterlimit:4;stroke-dasharray:none;stroke-opacity:1" />
      <path
         style="fill:none;fill-opacity:1;stroke:#c0c0c0;stroke-width:2;stroke-miterlimit:4;stroke-dasharray:none;stroke-opacity:1"
         d="m 630,690 90,0 0,-89.99994 -90,0 z"
         image-id="replaceme1"
         id="path4299"
         inkscape:connector-curvature="0" />
      <path
         inkscape:connector-curvature="0"
         id="path4301"
         image-id="replaceme1"
         d="m 540,690 90,0 0,-89.99994 -90,0 z"
         style="fill:none;fill-opacity:1;stroke:#c0c0c0;stroke-width:2;stroke-miterlimit:4;stroke-dasharray:none;stroke-opacity:1" />
      <path
         inkscape:connector-curvature="0"
         id="path4303"
         image-id="replaceme1"
         d="m 720,690 90,0 0,-89.99994 -90,0 z"
         style="fill:none;fill-opacity:1;stroke:#c0c0c0;stroke-width:2;stroke-miterlimit:4;stroke-dasharray:none;stroke-opacity:1" />
      <path
         style="fill:none;fill-opacity:1;stroke:#c0c0c0;stroke-width:2;stroke-miterlimit:4;stroke-dasharray:none;stroke-opacity:1"
         d="m 810,690 90,0 0,-89.99994 -90,0 z"
         image-id="replaceme1"
         id="path4305"
         inkscape:connector-curvature="0" />
      <path
         style="fill:none;fill-opacity:1;stroke:#c0c0c0;stroke-width:2;stroke-miterlimit:4;stroke-dasharray:none;stroke-opacity:1"
         d="m 0,510 90,0 0,-89.99996 -90,0 z"
         image-id="replaceme1"
         id="path4309"
         inkscape:connector-curvature="0" />
      <path
         inkscape:connector-curvature="0"
         id="path4311"
         image-id="replaceme1"
         d="m 90,510 90,0 0,-89.99996 -90,0 z"
         style="fill:none;fill-opacity:1;stroke:#c0c0c0;stroke-width:2;stroke-miterlimit:4;stroke-dasharray:none;stroke-opacity:1" />
      <path
         style="fill:none;fill-opacity:1;stroke:#c0c0c0;stroke-width:2;stroke-miterlimit:4;stroke-dasharray:none;stroke-opacity:1"
         d="m 90,510 90,0 0,-89.99996 -90,0 z"
         image-id="replaceme1"
         id="path4313"
         inkscape:connector-curvature="0" />
      <path
         inkscape:connector-curvature="0"
         id="path4315"
         image-id="replaceme1"
         d="m 180,510 90,0 0,-89.99994 -90,0 z"
         style="fill:none;fill-opacity:1;stroke:#c0c0c0;stroke-width:2;stroke-miterlimit:4;stroke-dasharray:none;stroke-opacity:1" />
      <path
         style="fill:none;fill-opacity:1;stroke:#c0c0c0;stroke-width:2;stroke-miterlimit:4;stroke-dasharray:none;stroke-opacity:1"
         d="m 270,510 90,0 0,-89.99994 -90,0 z"
         image-id="replaceme1"
         id="path4317"
         inkscape:connector-curvature="0" />
      <path
         inkscape:connector-curvature="0"
         id="path4319"
         image-id="replaceme1"
         d="m 360,510 90,0 0,-89.99994 -90,0 z"
         style="fill:none;fill-opacity:1;stroke:#c0c0c0;stroke-width:2;stroke-miterlimit:4;stroke-dasharray:none;stroke-opacity:1" />
      <path
         style="fill:none;fill-opacity:1;stroke:#c0c0c0;stroke-width:2;stroke-miterlimit:4;stroke-dasharray:none;stroke-opacity:1"
         d="m 450,510 90,0 0,-89.99994 -90,0 z"
         image-id="replaceme1"
         id="path4321"
         inkscape:connector-curvature="0" />
      <path
         inkscape:connector-curvature="0"
         id="path4323"
         image-id="replaceme1"
         d="m 630,510 90,0 0,-89.99994 -90,0 z"
         style="fill:none;fill-opacity:1;stroke:#c0c0c0;stroke-width:2;stroke-miterlimit:4;stroke-dasharray:none;stroke-opacity:1" />
      <path
         style="fill:none;fill-opacity:1;stroke:#c0c0c0;stroke-width:2;stroke-miterlimit:4;stroke-dasharray:none;stroke-opacity:1"
         d="m 540,510 90,0 0,-89.99994 -90,0 z"
         image-id="replaceme1"
         id="path4325"
         inkscape:connector-curvature="0" />
      <path
         style="fill:none;fill-opacity:1;stroke:#c0c0c0;stroke-width:2;stroke-miterlimit:4;stroke-dasharray:none;stroke-opacity:1"
         d="m 720,510 90,0 0,-89.99994 -90,0 z"
         image-id="replaceme1"
         id="path4327"
         inkscape:connector-curvature="0" />
      <path
         inkscape:connector-curvature="0"
         id="path4329"
         image-id="replaceme1"
         d="m 810,510 90,0 0,-89.99994 -90,0 z"
         style="fill:none;fill-opacity:1;stroke:#c0c0c0;stroke-width:2;stroke-miterlimit:4;stroke-dasharray:none;stroke-opacity:1" />
      <path
         inkscape:connector-curvature="0"
         id="path4333"
         image-id="replaceme1"
         d="m 0,600 90,0 0,-89.99996 -90,0 z"
         style="fill:none;fill-opacity:1;stroke:#c0c0c0;stroke-width:2;stroke-miterlimit:4;stroke-dasharray:none;stroke-opacity:1" />
      <path
         style="fill:none;fill-opacity:1;stroke:#c0c0c0;stroke-width:2;stroke-miterlimit:4;stroke-dasharray:none;stroke-opacity:1"
         d="m 90,600 90,0 0,-89.99996 -90,0 z"
         image-id="replaceme1"
         id="path4335"
         inkscape:connector-curvature="0" />
      <path
         inkscape:connector-curvature="0"
         id="path4337"
         image-id="replaceme1"
         d="m 90,600 90,0 0,-89.99996 -90,0 z"
         style="fill:none;fill-opacity:1;stroke:#c0c0c0;stroke-width:2;stroke-miterlimit:4;stroke-dasharray:none;stroke-opacity:1" />
      <path
         style="fill:none;fill-opacity:1;stroke:#c0c0c0;stroke-width:2;stroke-miterlimit:4;stroke-dasharray:none;stroke-opacity:1"
         d="m 180,600 90,0 0,-89.99994 -90,0 z"
         image-id="replaceme1"
         id="path4339"
         inkscape:connector-curvature="0" />
      <path
         inkscape:connector-curvature="0"
         id="path4341"
         image-id="replaceme1"
         d="m 270,600 90,0 0,-89.99994 -90,0 z"
         style="fill:none;fill-opacity:1;stroke:#c0c0c0;stroke-width:2;stroke-miterlimit:4;stroke-dasharray:none;stroke-opacity:1" />
      <path
         style="fill:none;fill-opacity:1;stroke:#c0c0c0;stroke-width:2;stroke-miterlimit:4;stroke-dasharray:none;stroke-opacity:1"
         d="m 360,600 90,0 0,-89.99994 -90,0 z"
         image-id="replaceme1"
         id="path4343"
         inkscape:connector-curvature="0" />
      <path
         inkscape:connector-curvature="0"
         id="path4345"
         image-id="replaceme1"
         d="m 450,600 90,0 0,-89.99994 -90,0 z"
         style="fill:none;fill-opacity:1;stroke:#c0c0c0;stroke-width:2;stroke-miterlimit:4;stroke-dasharray:none;stroke-opacity:1" />
      <path
         style="fill:none;fill-opacity:1;stroke:#c0c0c0;stroke-width:2;stroke-miterlimit:4;stroke-dasharray:none;stroke-opacity:1"
         d="m 630,600 90,0 0,-89.99994 -90,0 z"
         image-id="replaceme1"
         id="path4347"
         inkscape:connector-curvature="0" />
      <path
         inkscape:connector-curvature="0"
         id="path4349"
         image-id="replaceme1"
         d="m 540,600 90,0 0,-89.99994 -90,0 z"
         style="fill:none;fill-opacity:1;stroke:#c0c0c0;stroke-width:2;stroke-miterlimit:4;stroke-dasharray:none;stroke-opacity:1" />
      <path
         inkscape:connector-curvature="0"
         id="path4351"
         image-id="replaceme1"
         d="m 720,600 90,0 0,-89.99994 -90,0 z"
         style="fill:none;fill-opacity:1;stroke:#c0c0c0;stroke-width:2;stroke-miterlimit:4;stroke-dasharray:none;stroke-opacity:1" />
      <path
         style="fill:none;fill-opacity:1;stroke:#c0c0c0;stroke-width:2;stroke-miterlimit:4;stroke-dasharray:none;stroke-opacity:1"
         d="m 810,600 90,0 0,-89.99994 -90,0 z"
         image-id="replaceme1"
         id="path4353"
         inkscape:connector-curvature="0" />
      <path
         style="fill:none;fill-opacity:1;stroke:#c0c0c0;stroke-width:2;stroke-miterlimit:4;stroke-dasharray:none;stroke-opacity:1"
         d="m 0,420 90,0 0,-89.99996 -90,0 z"
         image-id="replaceme1"
         id="path4357"
         inkscape:connector-curvature="0" />
      <path
         inkscape:connector-curvature="0"
         id="path4359"
         image-id="replaceme1"
         d="m 90,420 90,0 0,-89.99996 -90,0 z"
         style="fill:none;fill-opacity:1;stroke:#c0c0c0;stroke-width:2;stroke-miterlimit:4;stroke-dasharray:none;stroke-opacity:1" />
      <path
         style="fill:none;fill-opacity:1;stroke:#c0c0c0;stroke-width:2;stroke-miterlimit:4;stroke-dasharray:none;stroke-opacity:1"
         d="m 90,420 90,0 0,-89.99996 -90,0 z"
         image-id="replaceme1"
         id="path4361"
         inkscape:connector-curvature="0" />
      <path
         inkscape:connector-curvature="0"
         id="path4363"
         image-id="replaceme1"
         d="m 180,420 90,0 0,-89.99994 -90,0 z"
         style="fill:none;fill-opacity:1;stroke:#c0c0c0;stroke-width:2;stroke-miterlimit:4;stroke-dasharray:none;stroke-opacity:1" />
      <path
         style="fill:none;fill-opacity:1;stroke:#c0c0c0;stroke-width:2;stroke-miterlimit:4;stroke-dasharray:none;stroke-opacity:1"
         d="m 270,420 90,0 0,-89.99994 -90,0 z"
         image-id="replaceme1"
         id="path4365"
         inkscape:connector-curvature="0" />
      <path
         inkscape:connector-curvature="0"
         id="path4367"
         image-id="replaceme1"
         d="m 360,420 90,0 0,-89.99994 -90,0 z"
         style="fill:none;fill-opacity:1;stroke:#c0c0c0;stroke-width:2;stroke-miterlimit:4;stroke-dasharray:none;stroke-opacity:1" />
      <path
         style="fill:none;fill-opacity:1;stroke:#c0c0c0;stroke-width:2;stroke-miterlimit:4;stroke-dasharray:none;stroke-opacity:1"
         d="m 450,420 90,0 0,-89.99994 -90,0 z"
         image-id="replaceme1"
         id="path4369"
         inkscape:connector-curvature="0" />
      <path
         inkscape:connector-curvature="0"
         id="path4371"
         image-id="replaceme1"
         d="m 630,420 90,0 0,-89.99994 -90,0 z"
         style="fill:none;fill-opacity:1;stroke:#c0c0c0;stroke-width:2;stroke-miterlimit:4;stroke-dasharray:none;stroke-opacity:1" />
      <path
         style="fill:none;fill-opacity:1;stroke:#c0c0c0;stroke-width:2;stroke-miterlimit:4;stroke-dasharray:none;stroke-opacity:1"
         d="m 540,420 90,0 0,-89.99994 -90,0 z"
         image-id="replaceme1"
         id="path4373"
         inkscape:connector-curvature="0" />
      <path
         style="fill:none;fill-opacity:1;stroke:#c0c0c0;stroke-width:2;stroke-miterlimit:4;stroke-dasharray:none;stroke-opacity:1"
         d="m 720,420 90,0 0,-89.99994 -90,0 z"
         image-id="replaceme1"
         id="path4375"
         inkscape:connector-curvature="0" />
      <path
         inkscape:connector-curvature="0"
         id="path4377"
         image-id="replaceme1"
         d="m 810,420 90,0 0,-89.99994 -90,0 z"
         style="fill:none;fill-opacity:1;stroke:#c0c0c0;stroke-width:2;stroke-miterlimit:4;stroke-dasharray:none;stroke-opacity:1" />
      <path
         inkscape:connector-curvature="0"
         id="path4381"
         image-id="replaceme1"
         d="m 0,240 90,0 0,-89.99996 -90,0 z"
         style="fill:none;fill-opacity:1;stroke:#c0c0c0;stroke-width:2;stroke-miterlimit:4;stroke-dasharray:none;stroke-opacity:1" />
      <path
         style="fill:none;fill-opacity:1;stroke:#c0c0c0;stroke-width:2;stroke-miterlimit:4;stroke-dasharray:none;stroke-opacity:1"
         d="m 90,240 90,0 0,-89.99996 -90,0 z"
         image-id="replaceme1"
         id="path4383"
         inkscape:connector-curvature="0" />
      <path
         inkscape:connector-curvature="0"
         id="path4385"
         image-id="replaceme1"
         d="m 90,240 90,0 0,-89.99996 -90,0 z"
         style="fill:none;fill-opacity:1;stroke:#c0c0c0;stroke-width:2;stroke-miterlimit:4;stroke-dasharray:none;stroke-opacity:1" />
      <path
         style="fill:none;fill-opacity:1;stroke:#c0c0c0;stroke-width:2;stroke-miterlimit:4;stroke-dasharray:none;stroke-opacity:1"
         d="m 180,240 90,0 0,-89.99994 -90,0 z"
         image-id="replaceme1"
         id="path4387"
         inkscape:connector-curvature="0" />
      <path
         inkscape:connector-curvature="0"
         id="path4389"
         image-id="replaceme1"
         d="m 270,240 90,0 0,-89.99994 -90,0 z"
         style="fill:none;fill-opacity:1;stroke:#c0c0c0;stroke-width:2;stroke-miterlimit:4;stroke-dasharray:none;stroke-opacity:1" />
      <path
         style="fill:none;fill-opacity:1;stroke:#c0c0c0;stroke-width:2;stroke-miterlimit:4;stroke-dasharray:none;stroke-opacity:1"
         d="m 360,240 90,0 0,-89.99994 -90,0 z"
         image-id="replaceme1"
         id="path4391"
         inkscape:connector-curvature="0" />
      <path
         inkscape:connector-curvature="0"
         id="path4393"
         image-id="replaceme1"
         d="m 450,240 90,0 0,-89.99994 -90,0 z"
         style="fill:none;fill-opacity:1;stroke:#c0c0c0;stroke-width:2;stroke-miterlimit:4;stroke-dasharray:none;stroke-opacity:1" />
      <path
         style="fill:none;fill-opacity:1;stroke:#c0c0c0;stroke-width:2;stroke-miterlimit:4;stroke-dasharray:none;stroke-opacity:1"
         d="m 630,240 90,0 0,-89.99994 -90,0 z"
         image-id="replaceme1"
         id="path4395"
         inkscape:connector-curvature="0" />
      <path
         inkscape:connector-curvature="0"
         id="path4397"
         image-id="replaceme1"
         d="m 540,240 90,0 0,-89.99994 -90,0 z"
         style="fill:none;fill-opacity:1;stroke:#c0c0c0;stroke-width:2;stroke-miterlimit:4;stroke-dasharray:none;stroke-opacity:1" />
      <path
         inkscape:connector-curvature="0"
         id="path4399"
         image-id="replaceme1"
         d="m 720,240 90,0 0,-89.99994 -90,0 z"
         style="fill:none;fill-opacity:1;stroke:#c0c0c0;stroke-width:2;stroke-miterlimit:4;stroke-dasharray:none;stroke-opacity:1" />
      <path
         style="fill:none;fill-opacity:1;stroke:#c0c0c0;stroke-width:2;stroke-miterlimit:4;stroke-dasharray:none;stroke-opacity:1"
         d="m 810,240 90,0 0,-89.99994 -90,0 z"
         image-id="replaceme1"
         id="path4401"
         inkscape:connector-curvature="0" />
      <path
         style="fill:none;fill-opacity:1;stroke:#c0c0c0;stroke-width:2;stroke-miterlimit:4;stroke-dasharray:none;stroke-opacity:1"
         d="m 0,330 90,0 0,-89.99996 -90,0 z"
         image-id="replaceme1"
         id="path4405"
         inkscape:connector-curvature="0" />
      <path
         inkscape:connector-curvature="0"
         id="path4407"
         image-id="replaceme1"
         d="m 90,330 90,0 0,-89.99996 -90,0 z"
         style="fill:none;fill-opacity:1;stroke:#c0c0c0;stroke-width:2;stroke-miterlimit:4;stroke-dasharray:none;stroke-opacity:1" />
      <path
         style="fill:none;fill-opacity:1;stroke:#c0c0c0;stroke-width:2;stroke-miterlimit:4;stroke-dasharray:none;stroke-opacity:1"
         d="m 90,330 90,0 0,-89.99996 -90,0 z"
         image-id="replaceme1"
         id="path4409"
         inkscape:connector-curvature="0" />
      <path
         inkscape:connector-curvature="0"
         id="path4411"
         image-id="replaceme1"
         d="m 180,330 90,0 0,-89.99994 -90,0 z"
         style="fill:none;fill-opacity:1;stroke:#c0c0c0;stroke-width:2;stroke-miterlimit:4;stroke-dasharray:none;stroke-opacity:1" />
      <path
         style="fill:none;fill-opacity:1;stroke:#c0c0c0;stroke-width:2;stroke-miterlimit:4;stroke-dasharray:none;stroke-opacity:1"
         d="m 270,330 90,0 0,-89.99994 -90,0 z"
         image-id="replaceme1"
         id="path4413"
         inkscape:connector-curvature="0" />
      <path
         inkscape:connector-curvature="0"
         id="path4415"
         image-id="replaceme1"
         d="m 360,330 90,0 0,-89.99994 -90,0 z"
         style="fill:none;fill-opacity:1;stroke:#c0c0c0;stroke-width:2;stroke-miterlimit:4;stroke-dasharray:none;stroke-opacity:1" />
      <path
         style="fill:none;fill-opacity:1;stroke:#c0c0c0;stroke-width:2;stroke-miterlimit:4;stroke-dasharray:none;stroke-opacity:1"
         d="m 450,330 90,0 0,-89.99994 -90,0 z"
         image-id="replaceme1"
         id="path4417"
         inkscape:connector-curvature="0" />
      <path
         inkscape:connector-curvature="0"
         id="path4419"
         image-id="replaceme1"
         d="m 630,330 90,0 0,-89.99994 -90,0 z"
         style="fill:none;fill-opacity:1;stroke:#c0c0c0;stroke-width:2;stroke-miterlimit:4;stroke-dasharray:none;stroke-opacity:1" />
      <path
         style="fill:none;fill-opacity:1;stroke:#c0c0c0;stroke-width:2;stroke-miterlimit:4;stroke-dasharray:none;stroke-opacity:1"
         d="m 540,330 90,0 0,-89.99994 -90,0 z"
         image-id="replaceme1"
         id="path4421"
         inkscape:connector-curvature="0" />
      <path
         style="fill:none;fill-opacity:1;stroke:#c0c0c0;stroke-width:2;stroke-miterlimit:4;stroke-dasharray:none;stroke-opacity:1"
         d="m 720,330 90,0 0,-89.99994 -90,0 z"
         image-id="replaceme1"
         id="path4423"
         inkscape:connector-curvature="0" />
      <path
         inkscape:connector-curvature="0"
         id="path4425"
         image-id="replaceme1"
         d="m 810,330 90,0 0,-89.99994 -90,0 z"
         style="fill:none;fill-opacity:1;stroke:#c0c0c0;stroke-width:2;stroke-miterlimit:4;stroke-dasharray:none;stroke-opacity:1" />
      <path
         inkscape:connector-curvature="0"
         id="path4429"
         image-id="replaceme1"
         d="m 0,60 90,0 0,-89.99996 -90,0 z"
         style="fill:none;fill-opacity:1;stroke:#c0c0c0;stroke-width:2;stroke-miterlimit:4;stroke-dasharray:none;stroke-opacity:1" />
      <path
         style="fill:none;fill-opacity:1;stroke:#c0c0c0;stroke-width:2;stroke-miterlimit:4;stroke-dasharray:none;stroke-opacity:1"
         d="m 90,60 90,0 0,-89.99996 -90,0 z"
         image-id="replaceme1"
         id="path4431"
         inkscape:connector-curvature="0" />
      <path
         inkscape:connector-curvature="0"
         id="path4433"
         image-id="replaceme1"
         d="m 90,60 90,0 0,-89.99996 -90,0 z"
         style="fill:none;fill-opacity:1;stroke:#c0c0c0;stroke-width:2;stroke-miterlimit:4;stroke-dasharray:none;stroke-opacity:1" />
      <path
         style="fill:none;fill-opacity:1;stroke:#c0c0c0;stroke-width:2;stroke-miterlimit:4;stroke-dasharray:none;stroke-opacity:1"
         d="m 180,60 90,0 0,-89.99994 -90,0 z"
         image-id="replaceme1"
         id="path4435"
         inkscape:connector-curvature="0" />
      <path
         inkscape:connector-curvature="0"
         id="path4437"
         image-id="replaceme1"
         d="m 270,60 90,0 0,-89.99994 -90,0 z"
         style="fill:none;fill-opacity:1;stroke:#c0c0c0;stroke-width:2;stroke-miterlimit:4;stroke-dasharray:none;stroke-opacity:1" />
      <path
         style="fill:none;fill-opacity:1;stroke:#c0c0c0;stroke-width:2;stroke-miterlimit:4;stroke-dasharray:none;stroke-opacity:1"
         d="m 360,60 90,0 0,-89.99994 -90,0 z"
         image-id="replaceme1"
         id="path4439"
         inkscape:connector-curvature="0" />
      <path
         inkscape:connector-curvature="0"
         id="path4441"
         image-id="replaceme1"
         d="m 450,60 90,0 0,-89.99994 -90,0 z"
         style="fill:none;fill-opacity:1;stroke:#c0c0c0;stroke-width:2;stroke-miterlimit:4;stroke-dasharray:none;stroke-opacity:1" />
      <path
         style="fill:none;fill-opacity:1;stroke:#c0c0c0;stroke-width:2;stroke-miterlimit:4;stroke-dasharray:none;stroke-opacity:1"
         d="m 630,60 90,0 0,-89.99994 -90,0 z"
         image-id="replaceme1"
         id="path4443"
         inkscape:connector-curvature="0" />
      <path
         inkscape:connector-curvature="0"
         id="path4445"
         image-id="replaceme1"
         d="m 540,60 90,0 0,-89.99994 -90,0 z"
         style="fill:none;fill-opacity:1;stroke:#c0c0c0;stroke-width:2;stroke-miterlimit:4;stroke-dasharray:none;stroke-opacity:1" />
      <path
         inkscape:connector-curvature="0"
         id="path4447"
         image-id="replaceme1"
         d="m 720,60 90,0 0,-89.99994 -90,0 z"
         style="fill:none;fill-opacity:1;stroke:#c0c0c0;stroke-width:2;stroke-miterlimit:4;stroke-dasharray:none;stroke-opacity:1" />
      <path
         style="fill:none;fill-opacity:1;stroke:#c0c0c0;stroke-width:2;stroke-miterlimit:4;stroke-dasharray:none;stroke-opacity:1"
         d="m 810,60 90,0 0,-89.99994 -90,0 z"
         image-id="replaceme1"
         id="path4449"
         inkscape:connector-curvature="0" />
      <path
         style="fill:none;fill-opacity:1;stroke:#c0c0c0;stroke-width:2;stroke-miterlimit:4;stroke-dasharray:none;stroke-opacity:1"
         d="m 0,150 90,0 0,-89.99996 -90,0 z"
         image-id="replaceme1"
         id="path4453"
         inkscape:connector-curvature="0" />
      <path
         inkscape:connector-curvature="0"
         id="path4455"
         image-id="replaceme1"
         d="m 90,150 90,0 0,-89.99996 -90,0 z"
         style="fill:none;fill-opacity:1;stroke:#c0c0c0;stroke-width:2;stroke-miterlimit:4;stroke-dasharray:none;stroke-opacity:1" />
      <path
         style="fill:none;fill-opacity:1;stroke:#c0c0c0;stroke-width:2;stroke-miterlimit:4;stroke-dasharray:none;stroke-opacity:1"
         d="m 90,150 90,0 0,-89.99996 -90,0 z"
         image-id="replaceme1"
         id="path4457"
         inkscape:connector-curvature="0" />
      <path
         inkscape:connector-curvature="0"
         id="path4459"
         image-id="replaceme1"
         d="m 180,150 90,0 0,-89.99994 -90,0 z"
         style="fill:none;fill-opacity:1;stroke:#c0c0c0;stroke-width:2;stroke-miterlimit:4;stroke-dasharray:none;stroke-opacity:1" />
      <path
         style="fill:none;fill-opacity:1;stroke:#c0c0c0;stroke-width:2;stroke-miterlimit:4;stroke-dasharray:none;stroke-opacity:1"
         d="m 270,150 90,0 0,-89.99994 -90,0 z"
         image-id="replaceme1"
         id="path4461"
         inkscape:connector-curvature="0" />
      <path
         inkscape:connector-curvature="0"
         id="path4463"
         image-id="replaceme1"
         d="m 360,150 90,0 0,-89.99994 -90,0 z"
         style="fill:none;fill-opacity:1;stroke:#c0c0c0;stroke-width:2;stroke-miterlimit:4;stroke-dasharray:none;stroke-opacity:1" />
      <path
         style="fill:none;fill-opacity:1;stroke:#c0c0c0;stroke-width:2;stroke-miterlimit:4;stroke-dasharray:none;stroke-opacity:1"
         d="m 450,150 90,0 0,-89.99994 -90,0 z"
         image-id="replaceme1"
         id="path4465"
         inkscape:connector-curvature="0" />
      <path
         inkscape:connector-curvature="0"
         id="path4467"
         image-id="replaceme1"
         d="m 630,150 90,0 0,-89.99994 -90,0 z"
         style="fill:none;fill-opacity:1;stroke:#c0c0c0;stroke-width:2;stroke-miterlimit:4;stroke-dasharray:none;stroke-opacity:1" />
      <path
         style="fill:none;fill-opacity:1;stroke:#c0c0c0;stroke-width:2;stroke-miterlimit:4;stroke-dasharray:none;stroke-opacity:1"
         d="m 540,150 90,0 0,-89.99994 -90,0 z"
         image-id="replaceme1"
         id="path4469"
         inkscape:connector-curvature="0" />
      <path
         style="fill:none;fill-opacity:1;stroke:#c0c0c0;stroke-width:2;stroke-miterlimit:4;stroke-dasharray:none;stroke-opacity:1"
         d="m 720,150 90,0 0,-89.99994 -90,0 z"
         image-id="replaceme1"
         id="path4471"
         inkscape:connector-curvature="0" />
      <path
         inkscape:connector-curvature="0"
         id="path4473"
         image-id="replaceme1"
         d="m 810,150 90,0 0,-89.99994 -90,0 z"
         style="fill:none;fill-opacity:1;stroke:#c0c0c0;stroke-width:2;stroke-miterlimit:4;stroke-dasharray:none;stroke-opacity:1" />
    </g>
  </g>
</svg>
