<?xml version="1.0" encoding="utf-8"?>
<!-- Generator: Adobe Illustrator 16.2.1, SVG Export Plug-In . SVG Version: 6.00 Build 0)  -->
<!DOCTYPE svg PUBLIC "-//W3C//DTD SVG 1.1//EN" "http://www.w3.org/Graphics/SVG/1.1/DTD/svg11.dtd">
<svg version="1.1" id="Layer_1" xmlns="http://www.w3.org/2000/svg" xmlns:xlink="http://www.w3.org/1999/xlink" x="0px" y="0px"
	 width="279.213px" height="289.884px" viewBox="0 0 279.213 289.884" enable-background="new 0 0 279.213 289.884"
	 xml:space="preserve">
<polygon fill="#6A7BBB" points="111.645,96.628 83.751,48.314 111.645,0.001 167.433,0.001 195.326,48.314 167.433,96.628 "/>
<polygon fill="#A2ADD7" points="83.75,144.941 27.963,144.941 0.069,96.628 27.963,48.314 83.751,48.314 111.645,96.627 "/>
<polygon fill="#4F63AD" points="111.645,193.256 83.75,241.568 27.963,241.568 0.068,193.255 27.963,144.941 83.75,144.941 "/>
<polygon fill="#2F438B" points="167.434,193.256 195.326,241.569 167.432,289.883 111.645,289.883 83.75,241.568 111.645,193.256 
	"/>
<polygon fill="#1E2D61" points="195.328,144.941 251.114,144.941 279.008,193.256 251.114,241.568 195.326,241.569 167.434,193.256 
	"/>
<polygon fill="#455BA8" points="167.434,96.626 195.326,48.314 251.115,48.314 279.008,96.627 251.114,144.941 195.328,144.941 "/>
<polygon fill="#C5E4CE" points="111.644,193.255 83.75,144.941 111.644,96.628 167.432,96.628 195.326,144.941 167.432,193.255 "/>
<polyline fill="#6AB784" points="111.644,0 83.75,48.314 27.962,48.314 0.069,0.001 "/>
<polyline fill="#6AB784" points="279.009,0 251.114,48.314 195.326,48.314 167.434,0.001 "/>
<polyline fill="#6AB784" points="167.434,289.883 195.326,241.568 251.114,241.569 279.009,289.882 "/>
<polyline fill="#6AB784" points="0.069,289.884 27.962,241.57 83.75,241.57 111.645,289.883 "/>
<polyline fill="#C5E4CE" points="0,193.255 27.895,241.567 0,289.882 "/>
<polyline fill="#C5E4CE" points="0,96.628 27.895,144.94 0,193.255 "/>
<polyline fill="#C5E4CE" points="0,0 27.895,48.313 0,96.627 "/>
<polyline fill="#C5E4CE" points="279.213,96.628 251.318,48.314 279.213,0.001 "/>
<polyline fill="#C5E4CE" points="279.213,193.255 251.318,144.941 279.213,96.628 "/>
<polyline fill="#C5E4CE" points="279.213,289.884 251.318,241.57 279.213,193.257 "/>
<rect x="0.068" y="0.001" fill="none" width="278.939" height="289.881"/>
</svg>
